<svg width="155" height="32" viewBox="0 0 155 32" fill="none" xmlns="http://www.w3.org/2000/svg"> <path d="M126.1 20.9L126.4 20.6C127.1 19.9 128.3 19.9 129.1 20.6L135.4 26.9C136.1 27.6 136.1 28.8 135.4 29.6L135.1 29.9C134.4 30.6 133.2 30.6 132.4 29.9L126.1 23.6C125.3 22.8 125.3 21.6 126.1 20.9Z" fill="#0081FF"/> <path fill-rule="evenodd" clip-rule="evenodd" d="M143.507 10.7675C143.507 10.8582 143.553 10.9943 143.643 11.0396L143.825 11.2664C143.916 11.3117 143.916 11.4478 143.87 11.5385L143.371 12.4002C143.326 12.4455 143.281 12.4909 143.19 12.4909H143.099L142.873 12.4002C142.827 12.3548 142.782 12.3548 142.736 12.3548H142.555C142.464 12.4002 142.374 12.5362 142.374 12.6269L142.328 12.8537C142.283 12.9444 142.192 13.0351 142.102 13.0351H141.104C140.968 13.0351 140.877 12.9444 140.877 12.8537L140.832 12.6269C140.832 12.5362 140.741 12.4002 140.65 12.3548C140.605 12.3095 140.56 12.3095 140.469 12.3095C140.446 12.3095 140.424 12.3208 140.401 12.3321C140.378 12.3435 140.356 12.3548 140.333 12.3548L140.061 12.4909H139.97C139.925 12.4909 139.834 12.4455 139.789 12.4002L139.29 11.5385C139.244 11.4478 139.244 11.3117 139.335 11.2664L139.517 11.1303C139.607 11.0396 139.653 10.9036 139.653 10.8129C139.653 10.6768 139.607 10.5408 139.517 10.4954L139.335 10.3594C139.244 10.314 139.244 10.178 139.29 10.0873L139.38 9.95122L139.834 9.18026C139.879 9.13491 139.925 9.08956 140.015 9.08956H140.106L140.333 9.18026C140.378 9.22561 140.424 9.22561 140.469 9.22561C140.514 9.22561 140.605 9.22561 140.65 9.18026C140.741 9.13491 140.832 8.99886 140.832 8.90816L140.877 8.6814C140.922 8.5907 141.013 8.5 141.104 8.5H142.102C142.238 8.5 142.328 8.5907 142.328 8.6814L142.374 8.90816C142.374 8.99886 142.464 9.13491 142.555 9.18026C142.6 9.22561 142.646 9.22561 142.736 9.22561C142.759 9.22561 142.782 9.21427 142.804 9.20294C142.827 9.1916 142.85 9.18026 142.873 9.18026L143.099 9.08956H143.19C143.235 9.08956 143.326 9.13491 143.371 9.18026L143.78 9.90587L143.87 10.0419C143.916 10.1326 143.916 10.2687 143.825 10.314L143.643 10.4501C143.553 10.5408 143.507 10.6768 143.507 10.7675ZM142.48 10.7675C142.48 11.2646 142.077 11.6675 141.58 11.6675C141.083 11.6675 140.68 11.2646 140.68 10.7675C140.68 10.2705 141.083 9.86753 141.58 9.86753C142.077 9.86753 142.48 10.2705 142.48 10.7675Z" fill="url(#paint0_linear_1311_1037)"/> <path d="M49.6 12.9C49.8 12.7 50.1 12.5 50.5 12.5H55.3C55.9 12.5 56.3 12.3 56.7 11.9C57.1 11.5 57.3 11 57.3 10.4C57.3 9.80002 57.1 9.30002 56.7 9.00002C56.3 8.60002 55.8 8.40002 55.3 8.40002H50.5C49 8.40002 47.8 8.90002 46.7 10C45.7 11 45.1 12.3 45.1 13.8V25C45.1 26.5 45.6 27.7 46.7 28.8C47.7 29.8 49 30.4 50.5 30.4H55.3C55.9 30.4 56.3 30.2 56.7 29.8C57.1 29.4 57.3 28.9 57.3 28.3C57.3 27.7 57.1 27.2 56.7 26.8C56.3 26.4 55.8 26.2 55.3 26.2H50.5C50.2 26.2 49.9 26.1 49.6 25.8C49.4 25.6 49.2 25.3 49.2 24.9V21.3H55.3C55.9 21.3 56.3 21.1 56.7 20.7C57.1 20.3 57.3 19.8 57.3 19.2C57.3 18.6 57.1 18.1 56.7 17.7C56.3 17.3 55.8 17.1 55.3 17.1H49.2V13.5C49.3 13.4 49.4 13.1 49.6 12.9Z" fill="#333333"/> <path d="M76.4 13.9C74.3 13.9 72.7 14.5 71.5 15.8C70.3 14.5 68.7 13.9 66.6 13.9C64.7 13.9 63 14.6 61.7 15.9C60.4 17.3 59.7 18.9 59.7 20.8V28.3C59.7 28.9 59.9 29.4 60.3 29.7C60.7 30.1 61.2 30.3 61.8 30.3C62.4 30.3 62.8 30.1 63.2 29.7C63.6 29.3 63.8 28.8 63.8 28.2V20.7C63.8 19.9 64.1 19.3 64.6 18.7C65.1 18.2 65.8 17.9 66.6 17.9C67.4 17.9 68 18.2 68.6 18.7C69.1 19.2 69.4 19.9 69.4 20.7V28.2C69.4 28.8 69.6 29.3 70 29.6C70.4 30 70.9 30.2 71.5 30.2C72.1 30.2 72.6 30 72.9 29.6C73.3 29.2 73.5 28.7 73.5 28.1V20.6C73.5 19.8 73.8 19.2 74.3 18.6C74.8 18.1 75.5 17.8 76.3 17.8C77.1 17.8 77.7 18.1 78.3 18.6C78.8 19.1 79.1 19.8 79.1 20.6V28.1C79.1 28.7 79.3 29.2 79.7 29.5C80.1 29.9 80.6 30.1 81.2 30.1C81.8 30.1 82.3 29.9 82.7 29.5C83.1 29.1 83.3 28.6 83.3 28.1V20.6C83.3 18.7 82.6 17.1 81.3 15.7C80 14.6 78.3 13.9 76.4 13.9Z" fill="#333333"/> <path d="M94.6 13.9C92.3 13.9 90.4 14.7 88.8 16.3C87.2 17.9 86.4 19.9 86.4 22.1C86.4 24.3 87.2 26.3 88.8 27.9C90.4 29.5 92.4 30.3 94.6 30.3C96.3 30.3 97.8 29.9 98.8 29C98.9 29.2 99.1 29.5 99.3 29.7C99.7 30.1 100.2 30.3 100.8 30.3C101.4 30.3 101.8 30.1 102.2 29.7C102.6 29.3 102.8 28.8 102.8 28.2V22C102.8 19.7 102 17.8 100.4 16.2C98.8 14.7 96.8 13.9 94.6 13.9ZM94.6 26.2C93.5 26.2 92.5 25.8 91.7 25C90.9 24.2 90.5 23.2 90.5 22.1C90.5 21 90.9 20 91.7 19.2C92.5 18.4 93.5 18 94.6 18C95.7 18 96.7 18.4 97.5 19.2C98.3 20 98.7 20.9 98.7 22.1C98.7 23.2 98.3 24.2 97.5 25C96.7 25.9 95.7 26.2 94.6 26.2Z" fill="#333333"/> <path d="M108.4 13.9C107.8 13.9 107.3 14.1 106.9 14.5C106.5 14.9 106.3 15.4 106.3 16V28.3C106.3 28.9 106.5 29.4 106.9 29.7C107.3 30.1 107.8 30.3 108.4 30.3C109 30.3 109.5 30.1 109.8 29.7C110.2 29.3 110.4 28.8 110.4 28.2V16C110.4 15.4 110.2 14.9 109.8 14.6C109.5 14.1 109 13.9 108.4 13.9Z" fill="#333333"/> <path d="M106.8 9.09999C106.4 9.49999 106.1 10.1 106.1 10.7C106.1 11.3 106.3 11.9 106.8 12.3C107.2 12.7 107.8 13 108.4 13C109 13 109.6 12.8 110 12.3C110.5 11.9 110.7 11.3 110.7 10.7C110.7 10.1 110.5 9.49999 110 9.09999C109.1 8.19999 107.7 8.19999 106.8 9.09999Z" fill="#333333"/> <path d="M118 9.00002C117.6 8.60002 117.1 8.40002 116.6 8.40002C116 8.40002 115.6 8.60002 115.2 9.00002C114.8 9.40002 114.6 9.90002 114.6 10.5V28.4C114.6 29 114.8 29.5 115.2 29.8C115.6 30.2 116.1 30.4 116.7 30.4C117.3 30.4 117.7 30.2 118.1 29.8C118.5 29.4 118.7 28.9 118.7 28.3V10.4C118.7 9.90002 118.5 9.40002 118 9.00002Z" fill="#333333"/> <path d="M141.6 13.9C141 13.9 140.5 14.1 140.1 14.5C139.7 14.9 139.5 15.4 139.5 16V28.3C139.5 28.9 139.7 29.4 140.1 29.7C140.5 30.1 141 30.3 141.6 30.3C142.2 30.3 142.7 30.1 143 29.7C143.4 29.3 143.6 28.8 143.6 28.2V16C143.6 15.4 143.4 14.9 143 14.6C142.7 14.1 142.2 13.9 141.6 13.9Z" fill="#0081FF"/> <path d="M152.9 26.2H151.8C151.6 26.2 151.5 26.2 151.4 26C151.3 25.9 151.2 25.8 151.2 25.6V18H152.8C153.4 18 153.8 17.8 154.2 17.4C154.6 17 154.8 16.5 154.8 15.9C154.8 15.3 154.6 14.8 154.2 14.4C153.8 14 153.3 13.8 152.8 13.8H151.2V10.3C151.2 9.70001 151 9.20001 150.6 8.80001C150.2 8.40001 149.7 8.20001 149.2 8.20001C148.6 8.20001 148.2 8.40001 147.8 8.80001C147.4 9.20001 147.2 9.70001 147.2 10.3V25.6C147.2 26.9 147.7 28 148.6 28.9C149.5 29.8 150.6 30.3 151.9 30.3H153C153.6 30.3 154 30.1 154.4 29.7C154.8 29.3 155 28.8 155 28.2C155 27.6 154.8 27.1 154.4 26.7C154 26.4 153.5 26.2 152.9 26.2Z" fill="#0081FF"/> <path d="M126.3 23.7L126 23.4C125.3 22.7 125.3 21.5 126 20.7L132.3 14.4C133 13.7 134.2 13.7 135 14.4L135.3 14.7C136 15.4 136 16.6 135.3 17.4L129 23.7C128.3 24.4 127.1 24.4 126.3 23.7Z" fill="#0081FF"/> <path d="M124.6 30.4H124.2C123.2 30.4 122.3 29.6 122.3 28.5V10.3C122.3 9.30002 123.1 8.40002 124.2 8.40002H124.6C125.6 8.40002 126.5 9.20002 126.5 10.3V28.5C126.5 29.5 125.6 30.4 124.6 30.4Z" fill="#0081FF"/> <path d="M31.5 32H4.2C1.9 32 0 30.1 0 27.7V10.1C0 8.4 1 6.8 2.6 6.1L16.3 0.3C17.3 -0.1 18.5 -0.1 19.5 0.3L33.2 6.1C34.8 6.8 35.8 8.3 35.8 10.1V27.7C35.7 30.1 33.8 32 31.5 32ZM17.8 2.7C17.6 2.7 17.5 2.7 17.3 2.8L3.6 8.7C3.1 8.9 2.7 9.5 2.7 10.1V27.7C2.7 28.6 3.3 29.2 4.1 29.2H31.4C32.2 29.2 32.8 28.5 32.8 27.7V10.1C32.8 9.5 32.4 8.9 31.9 8.7L18.3 2.9C18.2 2.8 18 2.7 17.8 2.7Z" fill="url(#paint1_linear_1311_1037)"/> <path d="M21.6 9.89998H14C13.2 9.89998 12.6 9.29998 12.6 8.49998C12.6 7.69998 13.2 7.09998 14 7.09998H21.6C22.4 7.09998 23 7.69998 23 8.49998C23 9.29998 22.4 9.89998 21.6 9.89998Z" fill="#007CEF" fill-opacity="0.3"/> <path d="M24 15.9L24.1 16.2C24.5 17 24.4 17.9 23.8 18.5C24.4 19.1 24.5 20.1 24.1 20.8L23 22.8C22.6 23.4 22 23.8 21.3 23.8C21.2 23.8 21 23.8 20.9 23.8C20.6 24.6 19.9 25.2 19 25.2H16.8C15.9 25.2 15.2 24.6 14.9 23.8C14.8 23.8 14.6 23.8 14.5 23.8C13.8 23.8 13.1 23.4 12.8 22.8L11.7 20.9C11.3 20.1 11.4 19.2 12 18.6C11.4 18 11.3 17 11.7 16.3L11.8 16.1L0 9.69995V27.7C0 30.1 1.9 32 4.1 32H31.4C33.7 32 35.8008 30.1 35.8008 27.7V9.69995L24 15.9Z" fill="url(#paint2_linear_1311_1037)"/> <path d="M22.3 19.1C22.1 19 22 18.7 22 18.5C22 18.3 22.1 18 22.3 17.8L22.7 17.5C22.9 17.4 22.9 17.1 22.8 16.9L22.6 16.6L21.7 15C21.6 14.9 21.4 14.8 21.3 14.8C21.2 14.8 21.2 14.8 21.1 14.8L20.6 15C20.5 15 20.4 15.1 20.3 15.1C20.1 15.1 20 15.1 19.9 15C19.7 14.9 19.5 14.6 19.5 14.4L19.4 13.9C19.4 13.7 19.2 13.5 18.9 13.5H16.7C16.5 13.5 16.3 13.7 16.2 13.9L16.1 14.4C16.1 14.6 15.9 14.9 15.7 15C15.6 15.1 15.4 15.1 15.3 15.1C15.2 15.1 15.1 15.1 15 15L14.5 14.8C14.4 14.8 14.4 14.8 14.3 14.8C14.1 14.8 14 14.9 13.9 15L12.9 16.7L12.7 17C12.6 17.2 12.6 17.5 12.8 17.6L13.2 17.9C13.4 18 13.5 18.3 13.5 18.6C13.5 18.8 13.4 19.1 13.2 19.3L12.8 19.6C12.6 19.7 12.6 20 12.7 20.2L13.8 22.1C13.9 22.2 14.1 22.3 14.2 22.3C14.3 22.3 14.3 22.3 14.4 22.3L15 22C15.1 22 15.2 21.9 15.3 21.9C15.5 21.9 15.6 21.9 15.7 22C15.9 22.1 16.1 22.4 16.1 22.6L16.2 23.1C16.2 23.3 16.4 23.5 16.7 23.5H18.9C19.1 23.5 19.3 23.3 19.4 23.1L19.5 22.6C19.5 22.4 19.7 22.1 19.9 22C20 22 20.2 22 20.3 22C20.4 22 20.5 22 20.6 22.1L21.1 22.3C21.2 22.3 21.2 22.3 21.3 22.3C21.5 22.3 21.6 22.2 21.7 22.1L22.8 20.2C22.9 20 22.9 19.7 22.7 19.6L22.3 19.1ZM17.8 20.9C16.5 20.9 15.4 19.8 15.4 18.5C15.4 18.3 15.4 18.1 15.5 18C15.7 16.9 16.7 16.1 17.9 16.1C19 16.1 20 16.9 20.2 17.9C20.2 18.1 20.3 18.3 20.3 18.5C20.2 19.8 19.2 20.9 17.8 20.9Z" fill="url(#paint3_linear_1311_1037)"/> <defs> <linearGradient id="paint0_linear_1311_1037" x1="139.924" y1="12.443" x2="143.299" y2="9.06793" gradientUnits="userSpaceOnUse"> <stop stop-color="#FC5C02"/> <stop offset="1" stop-color="#FC9202"/> </linearGradient> <linearGradient id="paint1_linear_1311_1037" x1="17.8268" y1="32" x2="17.8268" y2="0" gradientUnits="userSpaceOnUse"> <stop stop-color="#1EB5FE"/> <stop offset="0.65" stop-color="#0050E7"/> </linearGradient> <linearGradient id="paint2_linear_1311_1037" x1="17.8197" y1="32" x2="17.8197" y2="9.69625" gradientUnits="userSpaceOnUse"> <stop stop-color="#1EB5FE"/> <stop offset="1" stop-color="#095BFF"/> </linearGradient> <linearGradient id="paint3_linear_1311_1037" x1="14.0982" y1="22.1945" x2="21.5404" y2="14.7523" gradientUnits="userSpaceOnUse"> <stop stop-color="#FC5C02"/> <stop offset="1" stop-color="#FC9202"/> </linearGradient> </defs> </svg>