<?xml version="1.0" encoding="utf-8"?>
<!-- Generator: Adobe Illustrator 25.0.0, SVG Export Plug-In . SVG Version: 6.00 Build 0)  -->
<svg version="1.1" id="Layer_1" xmlns="http://www.w3.org/2000/svg" xmlns:xlink="http://www.w3.org/1999/xlink" x="0px" y="0px"
	 viewBox="0 0 120 25.3" style="enable-background:new 0 0 120 25.3;" xml:space="preserve">
<style type="text/css">
	.st0{fill:#12141C;}
	.st1{fill:url(#SVGID_1_);}
	.st2{fill:url(#SVGID_2_);}
	.st3{fill:url(#SVGID_3_);}
	.st4{fill:url(#SVGID_4_);}
	.st5{fill:url(#SVGID_5_);}
</style>
<g id="Layer_2_1_">
	<g id="Layer_1-2">
		<path class="st0" d="M35,16.9c0,2-1.3,3-2.8,3c-1.5,0-2.5-1.1-2.5-2.8V8.5h-4.1v9.3c0,3.4,2,5.5,4.9,5.5c2.2,0,3.8-1.1,4.4-2.8
			h0.1v2.7h3.9V8.5H35V16.9z"/>
		<path class="st0" d="M48.7,20c-0.8,0-1.4-0.3-1.4-1.4v-7.1h2.8v-3h-2.7V5h-4.1v3.5h-2v3h2v7.6c0,2.9,1.9,4.3,4.9,4.2
			c0.7,0,1.5-0.2,2.2-0.4l-0.6-3C49.4,20,49.1,20,48.7,20z"/>
		<path class="st0" d="M59.1,8.2c-4.3,0-7.1,3.1-7.1,7.6c0,4.6,2.8,7.5,7.3,7.5c3.6,0,6.1-1.8,6.6-4.5l-3.8-0.2
			c-0.4,1.1-1.5,1.7-2.8,1.7c-2,0-3.3-1.3-3.3-3.5v0h10v-1.1C66,10.6,62.9,8.2,59.1,8.2z M56,14.2c0.1-1.7,1.4-3,3.2-3
			c1.8,0,3,1.3,3,3H56z"/>
		<path class="st0" d="M77,8.5c-2.2,0-3.7,1.1-4.4,2.8h-0.2V8.7h-3.9v14.6h4.1v-8.5c0-1.9,1.1-3,2.8-3s2.6,1.1,2.6,2.9v8.6h4.1V14
			C82.1,10.6,80.1,8.5,77,8.5z"/>
		<polygon class="st0" points="101.7,3.8 96.7,3.8 89.7,12.4 89.5,12.4 89.5,3.8 85.3,3.8 85.3,23.3 89.5,23.3 89.5,17.7 91.5,15.3 
			96.8,23.3 101.8,23.3 94.4,12.5 		"/>
		<rect x="104.7" y="8.7" class="st0" width="4.1" height="14.6"/>
		<path class="st0" d="M119.4,19.9c-0.3,0.1-0.7,0.1-1,0.1c-0.8,0-1.4-0.3-1.4-1.4v-7.1h2.8v-3H117V5h-4.1v3.5h-2v3h2v7.6
			c0,2.9,1.9,4.3,4.9,4.2c0.7,0,1.5-0.2,2.2-0.4L119.4,19.9z"/>
		
			<linearGradient id="SVGID_1_" gradientUnits="userSpaceOnUse" x1="106.7069" y1="167.866" x2="106.7069" y2="163.7628" gradientTransform="matrix(1 0 0 -1 0 169.8898)">
			<stop  offset="0" style="stop-color:#FC9257"/>
			<stop  offset="1" style="stop-color:#F05A24"/>
		</linearGradient>
		<path class="st1" d="M106.7,2c-1.2,0-2.2,0.9-2.2,2s1,2.1,2.2,2.1s2.2-0.9,2.2-2.1S107.9,2,106.7,2z"/>
		
			<linearGradient id="SVGID_2_" gradientUnits="userSpaceOnUse" x1="0" y1="157.2342" x2="23.5839" y2="157.2342" gradientTransform="matrix(1 0 0 -1 0 169.8898)">
			<stop  offset="0" style="stop-color:#007BFF"/>
			<stop  offset="1" style="stop-color:#221377"/>
		</linearGradient>
		<path class="st2" d="M22.7,8c-0.4-0.3-1-0.4-1.5-0.3c-0.5,0.1-1,0.4-1.3,0.9c-1.4,2.2-4.7,2.3-4.7,2.3h-0.1
			c-5.2,0-7.2,4.5-7.3,4.7c-0.4,1,0,2.2,1,2.6l0,0c0.2,0.1,0.5,0.2,0.8,0.2c0.8,0,1.5-0.5,1.9-1.2c0.5-0.9,1.2-1.6,2.2-2v3.6
			c-0.1,0.7-0.5,1.3-1.1,1.7c-0.7,0.5-1.8,0.8-3.1,0.8c-1.5,0-2.7-0.5-3.6-1.5c-0.9-1-1.4-2.6-1.4-4.6l0-5.4c0.1-1.8,0.5-3.1,1.4-4
			c0.9-1,2.1-1.5,3.6-1.5c1.3,0,2.3,0.3,3.1,0.8c0.6,0.4,1,1.1,1.1,1.9v0.1c0,1.3,1,2.3,2.3,2.3s2.3-1,2.3-2.3V6.6
			c-0.1-1-0.4-1.9-0.9-2.7c-0.5-0.8-1.1-1.6-1.9-2.1C13.9,0.6,11.9,0,9.5,0C6.7,0,4.4,1,2.6,2.8C1,4.6,0.1,6.9,0,9.6v0
			c0,0.1,0,0.1,0,0.2L0,10c0,0.1,0,0.1,0,0.2v4.9c0,3,0.9,5.5,2.6,7.4c1.7,1.9,4.1,2.8,6.9,2.8c2.3,0,4.3-0.6,5.9-1.7
			c1.5-1,2.5-2.6,2.7-4.4l0.1-4.9c1.6-0.5,3.6-1.5,4.9-3.5c0.3-0.4,0.5-1,0.4-1.5C23.5,8.8,23.1,8.3,22.7,8z"/>
		
			<linearGradient id="SVGID_3_" gradientUnits="userSpaceOnUse" x1="13.8327" y1="166.6714" x2="18.8262" y2="159.4997" gradientTransform="matrix(1 0 0 -1 0 169.8898)">
			<stop  offset="0" style="stop-color:#007BFF"/>
			<stop  offset="1" style="stop-color:#221377"/>
		</linearGradient>
		<path class="st3" d="M13.7,6.8L13.7,6.8c0,1.3,1,2.4,2.3,2.4s2.3-1,2.3-2.3V6.6c-0.1-1-0.4-1.9-0.9-2.7c-0.5-0.8-0.9-1.3-1.9-2.1
			C12.9-0.2,9.5,0,9.5,0C12.9,1.3,13.7,5.6,13.7,6.8z"/>
		
			<linearGradient id="SVGID_4_" gradientUnits="userSpaceOnUse" x1="9.2147" y1="153.0055" x2="22.2449" y2="161.4949" gradientTransform="matrix(1 0 0 -1 0 169.8898)">
			<stop  offset="0" style="stop-color:#FC9257"/>
			<stop  offset="1" style="stop-color:#F05A24"/>
		</linearGradient>
		<path class="st4" d="M22.7,8c-0.4-0.3-1-0.4-1.5-0.3c-0.5,0.1-1,0.4-1.3,0.9c-1.4,2.2-4.7,2.3-4.7,2.3h-0.1
			c-5.2,0-7.2,4.5-7.3,4.7c-0.4,1,0,2.2,1,2.6l0,0c0.2,0.1,0.5,0.2,0.8,0.2c0.8,0,1.5-0.5,1.9-1.2c0-0.1,0.8-1.5,2.2-2
			c1.7-0.6,2.5-0.1,4.6-0.8c1.6-0.5,3.6-1.5,4.9-3.5c0.3-0.4,0.5-1,0.4-1.5C23.5,8.8,23.1,8.3,22.7,8z"/>
		
			<linearGradient id="SVGID_5_" gradientUnits="userSpaceOnUse" x1="21.1052" y1="160.0607" x2="18.2303" y2="158.2057" gradientTransform="matrix(1 0 0 -1 0 169.8898)">
			<stop  offset="0" style="stop-color:#FFA44D"/>
			<stop  offset="1" style="stop-color:#FBD06A"/>
		</linearGradient>
		<path class="st5" d="M22.7,8c-0.4-0.3-1-0.4-1.5-0.3c-0.5,0.1-1,0.4-1.3,0.9c-1.4,2.2-4.8,2.3-4.8,2.3c3.5-0.6,5,4.5,8.1,0
			c0.3-0.4,0.5-1,0.4-1.5C23.5,8.8,23.1,8.3,22.7,8z"/>
	</g>
</g>
</svg>
