<?xml version="1.0" encoding="UTF-8" standalone="no"?>
<!DOCTYPE svg PUBLIC "-//W3C//DTD SVG 1.1//EN" "http://www.w3.org/Graphics/SVG/1.1/DTD/svg11.dtd">
<svg width="100%" height="100%" viewBox="0 0 16 16" version="1.1" xmlns="http://www.w3.org/2000/svg" xmlns:xlink="http://www.w3.org/1999/xlink" xml:space="preserve" xmlns:serif="http://www.serif.com/" style="fill-rule:evenodd;clip-rule:evenodd;stroke-linejoin:round;stroke-miterlimit:2;">
    <g transform="matrix(0.0313903,0,0,0.0313903,0,0)">
        <rect x="51.2" y="51.2" width="51.2" height="51.2"/>
    </g>
    <g transform="matrix(0.0313903,0,0,0.0313903,0,0)">
        <path d="M358.4,0L358.4,25.6L332.8,25.6L332.8,51.2L358.4,51.2L358.4,153.6L384,153.6L384,179.2L358.4,179.2L358.4,204.8L409.6,204.8L409.6,153.6L486.4,153.6L486.4,179.2L512,179.2L512,0L358.4,0ZM486.4,128L384,128L384,25.6L486.4,25.6L486.4,128Z" style="fill-rule:nonzero;"/>
    </g>
    <g transform="matrix(0.0313903,0,0,0.0313903,0,0)">
        <rect x="409.6" y="51.2" width="51.2" height="51.2"/>
    </g>
    <g transform="matrix(0.0313903,0,0,0.0313903,0,0)">
        <rect x="51.2" y="409.6" width="51.2" height="51.2"/>
    </g>
    <g transform="matrix(0.0313903,0,0,0.0313903,0,0)">
        <rect x="358.4" y="358.4" width="25.6" height="25.6"/>
    </g>
    <g transform="matrix(0.0313903,0,0,0.0313903,0,0)">
        <rect x="230.4" y="486.4" width="25.6" height="25.6"/>
    </g>
    <g transform="matrix(0.0313903,0,0,0.0313903,0,0)">
        <rect x="256" y="384" width="25.6" height="25.6"/>
    </g>
    <g transform="matrix(0.0313903,0,0,0.0313903,0,0)">
        <rect x="256" y="435.2" width="25.6" height="25.6"/>
    </g>
    <g transform="matrix(0.0313903,0,0,0.0313903,0,0)">
        <rect x="486.4" y="307.2" width="25.6" height="25.6"/>
    </g>
    <g transform="matrix(0.0313903,0,0,0.0313903,0,0)">
        <rect x="0" y="307.2" width="25.6" height="25.6"/>
    </g>
    <g transform="matrix(0.0313903,0,0,0.0313903,0,0)">
        <rect x="0" y="179.2" width="25.6" height="25.6"/>
    </g>
    <g transform="matrix(0.0313903,0,0,0.0313903,0,0)">
        <path d="M281.6,25.6L281.6,51.2L230.4,51.2L230.4,76.8L307.2,76.8L307.2,25.6L281.6,25.6Z" style="fill-rule:nonzero;"/>
    </g>
    <g transform="matrix(0.0313903,0,0,0.0313903,0,0)">
        <path d="M486.4,204.8L486.4,230.4L435.2,230.4L435.2,256L358.4,256L358.4,230.4L332.8,230.4L332.8,256L281.6,256L281.6,281.6L358.4,281.6L358.4,307.2L281.6,307.2L281.6,281.6L256,281.6L256,307.2L230.4,307.2L230.4,281.6L204.8,281.6L204.8,307.2L179.2,307.2L179.2,332.8L230.4,332.8L230.4,358.4L256,358.4L256,332.8L307.2,332.8L307.2,358.4L281.6,358.4L281.6,384L307.2,384L307.2,435.2L332.8,435.2L332.8,460.8L358.4,460.8L358.4,435.2L435.2,435.2L435.2,384L460.8,384L460.8,358.4L435.2,358.4L435.2,307.2L384,307.2L384,281.6L435.2,281.6L435.2,307.2L460.8,307.2L460.8,281.6L486.4,281.6L486.4,256L512,256L512,204.8L486.4,204.8ZM409.6,332.8L409.6,409.6L332.8,409.6L332.8,332.8L409.6,332.8Z" style="fill-rule:nonzero;"/>
    </g>
    <g transform="matrix(0.0313903,0,0,0.0313903,0,0)">
        <path d="M358.4,153.6L307.2,153.6L307.2,179.2L281.6,179.2L281.6,230.4L307.2,230.4L307.2,204.8L332.8,204.8L332.8,179.2L358.4,179.2L358.4,153.6Z" style="fill-rule:nonzero;"/>
    </g>
    <g transform="matrix(0.0313903,0,0,0.0313903,0,0)">
        <rect x="281.6" y="486.4" width="51.2" height="25.6"/>
    </g>
    <g transform="matrix(0.0313903,0,0,0.0313903,0,0)">
        <rect x="204.8" y="25.6" width="25.6" height="25.6"/>
    </g>
    <g transform="matrix(0.0313903,0,0,0.0313903,0,0)">
        <rect x="409.6" y="204.8" width="25.6" height="25.6"/>
    </g>
    <g transform="matrix(0.0313903,0,0,0.0313903,0,0)">
        <rect x="435.2" y="179.2" width="25.6" height="25.6"/>
    </g>
    <g transform="matrix(0.0313903,0,0,0.0313903,0,0)">
        <rect x="102.4" y="307.2" width="25.6" height="25.6"/>
    </g>
    <g transform="matrix(0.0313903,0,0,0.0313903,0,0)">
        <path d="M153.6,486.4L153.6,384L179.2,384L179.2,332.8L153.6,332.8L153.6,358.4L76.8,358.4L76.8,332.8L25.6,332.8L25.6,358.4L0,358.4L0,512L204.8,512L204.8,486.4L153.6,486.4ZM128,486.4L25.6,486.4L25.6,384L128,384L128,486.4Z" style="fill-rule:nonzero;"/>
    </g>
    <g transform="matrix(0.0313903,0,0,0.0313903,0,0)">
        <rect x="153.6" y="153.6" width="25.6" height="25.6"/>
    </g>
    <g transform="matrix(0.0313903,0,0,0.0313903,0,0)">
        <path d="M204.8,0L0,0L0,153.6L25.6,153.6L25.6,179.2L51.2,179.2L51.2,153.6L76.8,153.6L76.8,179.2L102.4,179.2L102.4,153.6L153.6,153.6L153.6,102.4L179.2,102.4L179.2,76.8L153.6,76.8L153.6,25.6L204.8,25.6L204.8,0ZM128,128L25.6,128L25.6,25.6L128,25.6L128,128Z" style="fill-rule:nonzero;"/>
    </g>
    <g transform="matrix(0.0313903,0,0,0.0313903,0,0)">
        <rect x="307.2" y="76.8" width="25.6" height="25.6"/>
    </g>
    <g transform="matrix(0.0313903,0,0,0.0313903,0,0)">
        <rect x="256" y="0" width="25.6" height="25.6"/>
    </g>
    <g transform="matrix(0.0313903,0,0,0.0313903,0,0)">
        <path d="M307.2,153.6L307.2,128L281.6,128L281.6,102.4L256,102.4L256,128L204.8,128L204.8,102.4L179.2,102.4L179.2,153.6L204.8,153.6L204.8,204.8L128,204.8L128,179.2L102.4,179.2L102.4,204.8L25.6,204.8L25.6,230.4L76.8,230.4L76.8,256L0,256L0,281.6L76.8,281.6L76.8,307.2L102.4,307.2L102.4,281.6L128,281.6L128,307.2L153.6,307.2L153.6,281.6L204.8,281.6L204.8,256L179.2,256L179.2,230.4L230.4,230.4L230.4,256L281.6,256L281.6,230.4L256,230.4L256,204.8L230.4,204.8L230.4,153.6L307.2,153.6ZM153.6,256L102.4,256L102.4,230.4L153.6,230.4L153.6,256Z" style="fill-rule:nonzero;"/>
    </g>
    <g transform="matrix(0.0313903,0,0,0.0313903,0,0)">
        <path d="M230.4,409.6L230.4,358.4L204.8,358.4L204.8,384L179.2,384L179.2,409.6L204.8,409.6L204.8,435.2L179.2,435.2L179.2,460.8L230.4,460.8L230.4,435.2L256,435.2L256,409.6L230.4,409.6Z" style="fill-rule:nonzero;"/>
    </g>
    <g transform="matrix(0.0313903,0,0,0.0313903,0,0)">
        <path d="M460.8,460.8L460.8,435.2L435.2,435.2L435.2,460.8L358.4,460.8L358.4,486.4L409.6,486.4L409.6,512L435.2,512L435.2,486.4L486.4,486.4L486.4,512L512,512L512,460.8L460.8,460.8Z" style="fill-rule:nonzero;"/>
    </g>
    <g transform="matrix(0.0313903,0,0,0.0313903,0,0)">
        <path d="M486.4,358.4L486.4,384L460.8,384L460.8,409.6L512,409.6L512,358.4L486.4,358.4Z" style="fill-rule:nonzero;"/>
    </g>
</svg>
