<?xml version="1.0" encoding="UTF-8" standalone="no"?><!DOCTYPE svg PUBLIC "-//W3C//DTD SVG 1.1//EN" "http://www.w3.org/Graphics/SVG/1.1/DTD/svg11.dtd"><svg width="100%" height="100%" viewBox="0 0 834 500" version="1.1" xmlns="http://www.w3.org/2000/svg" xmlns:xlink="http://www.w3.org/1999/xlink" xml:space="preserve" xmlns:serif="http://www.serif.com/" style="fill-rule:evenodd;clip-rule:evenodd;stroke-linejoin:round;stroke-miterlimit:2;"><g><g><path d="M260.902,274.986c-7.946,12.164 -21.721,20.095 -37.265,20.095c-17.592,0 -32.805,-10.222 -40.126,-25.085l-33.146,50.706c18.468,19.407 44.468,31.493 73.272,31.493c35.555,-0 66.831,-18.415 84.956,-46.286l103.379,-158.104l-67.903,0l-83.167,127.181Zm-74.53,-49.974c7.946,-12.164 21.721,-20.093 37.265,-20.093c17.592,-0 32.805,10.22 40.126,25.08l33.146,-50.703c-18.468,-19.405 -44.468,-31.491 -73.272,-31.491c-35.555,0 -66.833,18.415 -84.956,46.284l-103.379,158.106l67.903,-0l83.167,-127.183Zm37.265,2.238c12.478,-0 22.593,10.183 22.593,22.749c0,12.566 -10.115,22.751 -22.593,22.751c-12.478,0 -22.593,-10.185 -22.593,-22.751c-0,-12.566 10.115,-22.749 22.593,-22.749" style="fill:#7a00d1;fill-rule:nonzero;"/></g><g><g><path d="M515.443,248.515c-0,-30.791 -20.945,-53.923 -51.735,-53.923c-30.948,-0 -51.736,23.132 -51.736,53.923c0,30.791 20.788,53.923 51.736,53.923c10.784,0 20.318,-2.813 28.29,-7.815l10.003,10.785l9.065,-7.815l-9.847,-10.628c9.066,-9.535 14.224,-23.133 14.224,-38.45Zm-51.735,42.357c-23.445,0 -38.294,-18.13 -38.294,-42.357c0,-24.383 14.849,-42.357 38.294,-42.357c23.288,0 38.293,17.974 38.293,42.357c-0,11.566 -3.439,21.726 -9.534,29.072l-14.693,-15.786l-9.065,7.658l14.849,16.099c-5.627,3.282 -12.348,5.314 -19.85,5.314Z" style="fill:#1f033f;fill-rule:nonzero;"/></g><g><path d="M559.831,300.563l12.973,-0l0,-44.077l40.951,-60.175l-15.162,0l-32.353,48.453l-32.354,-48.453l-15.161,0l41.106,60.175l0,44.077Z" style="fill:#1f033f;fill-rule:nonzero;"/></g><g><path d="M687.684,300.563l15.318,-0l-28.134,-42.514c14.223,-1.25 27.04,-11.566 27.04,-30.322c-0,-19.224 -13.598,-31.416 -32.667,-31.416l-41.888,0l-0,104.252l12.973,-0l-0,-41.42l20.787,0l26.571,41.42Zm0.782,-72.836c-0,11.723 -8.44,20.007 -20.788,20.007l-27.352,-0l-0,-39.857l27.352,0c12.348,0 20.788,8.128 20.788,19.85Z" style="fill:#1f033f;fill-rule:nonzero;"/></g><g><path d="M782.714,300.563l15.318,-0l-28.134,-42.514c14.223,-1.25 27.04,-11.566 27.04,-30.322c-0,-19.224 -13.598,-31.416 -32.667,-31.416l-41.888,0l-0,104.252l12.973,-0l-0,-41.42l20.788,0l26.57,41.42Zm0.782,-72.836c-0,11.723 -8.44,20.007 -20.788,20.007l-27.352,-0l-0,-39.857l27.352,0c12.348,0 20.788,8.128 20.788,19.85Z" style="fill:#1f033f;fill-rule:nonzero;"/></g></g></g></svg>